Coordinates
version=1
nRows=14
nColumns=24
inDegrees=yes

Units are S.I. units (second, meters, Newtons, ...)
Angles are in degrees.

endheader
time	pelvis_tilt	pelvis_list	pelvis_rotation	pelvis_tx	pelvis_ty	pelvis_tz	hip_flexion_r	hip_adduction_r	hip_rotation_r	knee_angle_r	ankle_angle_r	subtalar_angle_r	mtp_angle_r	hip_flexion_l	hip_adduction_l	hip_rotation_l	knee_angle_l	ankle_angle_l	subtalar_angle_l	mtp_angle_l	lumbar_extension	lumbar_bending	lumbar_rotation
      2.15000000	     11.72405199	     -5.31942525	      6.66766817	      0.14367148	      0.95399924	      0.03070947	     -6.75311582	     10.65830518	    -11.13116571	    -11.67779072	     18.82548734	    -11.75091994	     14.76386123	      6.33058717	     -8.76913339	     -0.78437657	    -64.07805755	     14.87615220	     -8.07023830	     26.20065710	    -21.06295998	      8.37289786	     -1.20730083
      2.15500000	     11.91099183	     -5.02487631	      6.58938919	      0.14908567	      0.95498714	      0.03100827	     -7.55305596	     10.44102977	    -10.98261395	    -11.30450685	     18.90888212	    -11.68500655	     14.76545929	      6.43585776	     -8.42832154	     -1.06565147	    -63.36038200	     15.29836043	     -7.98879099	     25.87247033	    -21.27393214	      8.05729827	     -1.23510529
      2.16000000	     12.08113352	     -4.72822436	      6.50994105	      0.15448020	      0.95590730	      0.03129336	     -8.32961190	     10.21418629	    -10.85570375	    -10.93719621	     19.00203814	    -11.59873366	     14.76899865	      6.54568626	     -8.07742151	     -1.33968350	    -62.59019015	     15.69855197	     -7.92640144	     25.53121615	    -21.46568196	      7.73765115	     -1.25580670
      2.16500000	     12.23480610	     -4.42760763	      6.41662391	      0.15985796	      0.95678796	      0.03159145	     -9.07702641	      9.97393664	    -10.75333193	    -10.58946548	     19.08742553	    -11.49931190	     14.77126011	      6.65047568	     -7.72032868	     -1.63275561	    -61.75192277	     16.07306796	     -7.91465879	     25.17529578	    -21.64355593	      7.40661450	     -1.28783651
      2.17000000	     12.38872458	     -4.12187717	      6.31972352	      0.16521419	      0.95761814	      0.03188351	     -9.82455049	      9.72476370	    -10.65860097	    -10.23759225	     19.19317952	    -11.38419533	     14.77219187	      6.73750552	     -7.35483897	     -1.92697361	    -60.85654354	     16.41079687	     -7.92586427	     24.83573164	    -21.82248555	      7.06733918	     -1.30276068
      2.17500000	     12.53504111	     -3.81093440	      6.21463006	      0.17055812	      0.95840342	      0.03216469	    -10.56078137	      9.46283879	    -10.57627666	     -9.88978797	     19.31675864	    -11.24708919	     14.77216409	      6.81157916	     -6.97680310	     -2.22274567	    -59.89852164	     16.70806821	     -7.98526533	     24.51374457	    -21.99399617	      6.71967930	     -1.29979105
      2.18000000	     12.67768131	     -3.50165286	      6.11748607	      0.17588791	      0.95914946	      0.03242801	    -11.27632325	      9.19608658	    -10.57722443	     -9.56719972	     19.40732532	    -11.06763931	     14.75379244	      6.86874651	     -6.60119720	     -2.52292399	    -58.87401407	     17.02310573	     -8.08552923	     24.12031268	    -22.16224097	      6.37388715	     -1.33105017
      2.18500000	     12.79865949	     -3.18965696	      5.98347164	      0.18119312	      0.95982045	      0.03273957	    -11.96800304	      8.91833829	    -10.48635631	     -9.24441978	     19.56369975	    -10.91397060	     14.74265674	      6.92746265	     -6.22285821	     -2.85806408	    -57.79328295	     17.23891404	     -8.25221549	     23.83684411	    -22.31176727	      6.01024780	     -1.31782674
      2.19000000	     12.94067014	     -2.87472757	      5.86220618	      0.18650664	      0.96047871	      0.03301692	    -12.67657526	      8.63493935	    -10.47985227	     -8.92949680	     19.69300039	    -10.71105872	     14.71966156	      6.93712175	     -5.84175524	     -3.18891124	    -56.64021773	     17.46196816	     -8.45284557	     23.55472736	    -22.48248321	      5.64680151	     -1.32789455
      2.19500000	     13.07201549	     -2.55953078	      5.73174269	      0.19179516	      0.96107786	      0.03329227	    -13.35998096	      8.34363963	    -10.48840467	     -8.63540133	     19.83793241	    -10.48957023	     14.68664122	      6.93660775	     -5.45796070	     -3.53249684	    -55.42503816	     17.64933034	     -8.70749025	     23.28436364	    -22.64427586	      5.27919117	     -1.32984095
      2.20000000	     13.20119958	     -2.24460659	      5.59255671	      0.19709082	      0.96162649	      0.03356287	    -14.03505617	      8.04612796	    -10.50700979	     -8.35167183	     19.99812557	    -10.25608644	     14.64445498	      6.91286145	     -5.07388607	     -3.88774326	    -54.14630006	     17.80328824	     -9.00044774	     23.03440300	    -22.80123054	      4.90731827	     -1.32546531
      2.20500000	     13.33765085	     -1.93042602	      5.45150595	      0.20238184	      0.96214152	      0.03382366	    -14.70599177	      7.74491804	    -10.55251558	     -8.08795444	     20.16003177	    -10.00202426	     14.58838479	      6.85434188	     -4.69135954	     -4.25440848	    -52.79816635	     17.92934891	     -9.32848462	     22.79606109	    -22.96713670	      4.53609197	     -1.31784463
      2.21000000	     13.46614671	     -1.61726186	      5.30108757	      0.20767843	      0.96260808	      0.03408044	    -15.36029461	      7.43728727	    -10.60615530	     -7.83727283	     20.33262503	     -9.73017235	     14.51967497	      6.77667823	     -4.30767358	     -4.63393888	    -51.38237494	     18.02202665	     -9.69176391	     22.57601813	    -23.12303487	      4.16023578	     -1.30642284
      2.21500000	     13.60827186	     -1.30673573	      5.14745890	      0.21296847	      0.96302976	      0.03433064	    -16.01993283	      7.12929472	    -10.67511231	     -7.60050022	     20.51441913	     -9.45027287	     14.43622643	      6.65870770	     -3.92832036	     -5.02596939	    -49.90291661	     18.08751251	    -10.07662938	     22.37615146	    -23.29561796	      3.78565556	     -1.28936419
